<svg version="1.1" id="Layer_1" xmlns="http://www.w3.org/2000/svg" xmlns:xlink="http://www.w3.org/1999/xlink" x="0px" y="0px"
	 width="100%" viewBox="0 0 1024 1024" enable-background="new 0 0 1024 1024" xml:space="preserve">
<path fill="#000000" opacity="1.000000" stroke="none" 
	d="
M518.766846,533.386963 
	C514.833557,531.708496 514.784790,529.508789 517.015564,526.647644 
	C522.767700,519.270142 521.550598,519.830872 529.197327,523.284119 
	C547.751892,531.663269 570.806580,521.688354 576.704773,500.469696 
	C578.418579,494.304291 578.999878,488.079041 579.023315,481.727600 
	C579.176575,440.246765 579.429688,398.766174 579.463745,357.285339 
	C579.466980,353.293671 581.037109,352.571014 584.466309,352.553650 
	C592.987427,352.510559 592.798462,352.557861 592.779480,361.091553 
	C592.702698,395.574615 592.787109,430.058563 592.968140,464.541351 
	C593.031189,476.539124 592.794128,488.463348 590.421143,500.290985 
	C585.223022,526.200012 565.558777,539.434631 541.038025,539.550537 
	C533.468201,539.586243 525.948364,537.256104 518.766846,533.386963 
z"/>
<path fill="#000000" opacity="1.000000" stroke="none" 
	d="
M596.612305,324.420532 
	C593.481323,321.684845 591.358948,322.900909 589.188232,325.348816 
	C576.596802,339.547607 563.938293,353.686920 551.304871,367.848419 
	C551.083496,368.096558 550.895996,368.374481 550.685242,368.632477 
	C543.225769,377.764038 543.225647,377.763947 534.420837,370.317230 
	C528.511353,365.319275 528.511475,365.319397 522.735962,370.729431 
	C486.032776,405.110016 449.342316,439.504211 412.613159,473.856995 
	C406.779388,479.313263 400.189301,483.928558 394.721710,489.805023 
	C394.189240,490.377258 393.532074,491.010712 392.334351,490.322052 
	C392.425018,487.998535 394.325226,486.717804 395.725739,485.248444 
	C422.494995,457.162231 449.266296,429.077759 476.110596,401.063263 
	C492.471436,383.989136 508.942291,367.020325 525.393616,350.033112 
	C530.343994,344.921509 530.390076,344.966095 535.583862,349.924805 
	C543.166504,357.164215 543.250854,357.246674 550.705383,349.618469 
	C560.131470,339.972809 569.418884,330.191223 578.725708,320.429749 
	C580.317139,318.760498 581.706482,316.898590 582.963806,315.395203 
	C582.956421,312.613770 579.705872,312.520142 579.779114,309.367920 
	C586.808411,305.726196 594.378357,302.411346 603.291138,299.257599 
	C602.218811,308.123291 601.348328,315.965668 600.279114,323.780884 
	C599.942261,326.242920 598.292419,325.355652 596.612305,324.420532 
z"/>
<path fill="#000000" opacity="1.000000" stroke="none" 
	d="
M441.832062,496.219757 
	C436.568665,491.289246 431.954163,486.333282 428.875732,480.066467 
	C426.728333,475.695038 426.738312,472.279388 431.613007,469.867889 
	C433.511169,468.928894 434.957642,467.140350 437.222931,466.675873 
	C438.983307,467.964783 439.209900,470.074402 440.029419,471.809967 
	C448.142029,488.990631 469.173859,499.585541 487.796417,495.791901 
	C499.929230,493.320312 508.851410,486.889465 512.948730,474.848114 
	C517.236572,462.247162 512.871155,451.641205 504.686493,442.212860 
	C499.073853,435.747375 491.951843,431.039307 484.865021,426.341858 
	C482.811462,424.980682 480.452148,423.977234 478.902344,421.568451 
	C480.519470,418.239960 483.552399,416.126373 486.119507,413.629639 
	C487.637726,412.152985 489.197968,412.979187 490.659882,413.911499 
	C500.662567,420.290619 510.342621,427.103058 517.808533,436.484955 
	C534.294373,457.201599 530.665833,493.638214 500.241943,505.617218 
	C479.020599,513.972839 459.889801,509.605988 441.832062,496.219757 
z"/>
<path fill="#000000" opacity="1.000000" stroke="none" 
	d="
M499.929413,349.032898 
	C488.407440,334.036652 472.102844,328.787109 456.074921,334.682373 
	C438.921265,340.991699 432.168091,360.406189 441.551453,376.128235 
	C446.698334,384.751923 454.821289,389.964905 462.862854,395.319244 
	C464.635895,396.499847 466.754822,397.236237 468.099182,399.414368 
	C466.510437,402.507446 463.668274,404.587097 461.327637,407.081635 
	C460.256775,408.222870 458.993073,408.220612 457.704498,407.447510 
	C445.489227,400.118530 433.293304,392.615143 427.802795,378.506439 
	C417.393738,351.758942 431.421387,323.129120 462.955414,319.612671 
	C481.633606,317.529785 497.338531,323.269104 509.400635,337.950531 
	C514.815918,344.541748 514.461975,345.985931 506.567657,352.839447 
	C505.843750,353.467865 504.951324,353.902130 504.177002,354.400909 
	C501.709381,353.395264 501.537720,350.868469 499.929413,349.032898 
z"/>
<path fill="#000000" opacity="1.000000" stroke="none" 
	d="
M461.215027,623.780029 
	C467.080139,610.335205 472.869019,597.233948 478.514191,584.070984 
	C479.668304,581.380005 480.909698,579.643066 484.270111,579.691772 
	C487.394409,579.737000 489.095917,580.812866 490.312500,583.689514 
	C496.211426,597.637268 502.278656,611.513794 508.282684,625.407288 
	C502.880676,628.220154 499.332062,627.272034 497.474792,621.765137 
	C495.723969,616.573975 492.658569,614.577332 487.402496,615.362366 
	C486.098572,615.557190 484.710266,615.575012 483.412781,615.359985 
	C476.895660,614.280090 472.423492,616.268555 471.005035,623.220886 
	C470.347046,626.445862 467.726959,626.848389 465.209595,626.526367 
	C463.722656,626.336121 460.640747,627.893433 461.215027,623.780029 
M480.695892,600.126770 
	C480.070160,602.417297 478.268768,604.392883 478.595276,607.191589 
	C482.653870,607.790894 486.444061,608.300110 490.636322,606.736206 
	C488.780518,601.930725 487.617310,597.227844 484.518799,593.203064 
	C482.503052,595.094238 481.912048,597.362732 480.695892,600.126770 
z"/>
<path fill="#000000" opacity="1.000000" stroke="none" 
	d="
M643.122864,616.160950 
	C647.883179,605.117126 652.527405,594.435181 657.056641,583.704651 
	C658.150208,581.114014 659.666626,579.787048 662.647461,579.729919 
	C665.573730,579.673889 667.263794,580.710754 668.405579,583.367798 
	C674.251953,596.973267 680.198853,610.535522 686.080750,624.125916 
	C686.256714,624.532532 686.103027,625.081787 686.103027,625.540161 
	C679.802979,627.782043 677.695862,627.203247 675.647949,621.535889 
	C673.898621,616.694824 671.106934,614.500793 665.956604,615.353943 
	C664.497986,615.595642 662.931763,615.595398 661.472473,615.355835 
	C655.067200,614.304138 651.071777,616.699402 649.247070,623.065369 
	C647.642151,628.664612 643.385132,626.107117 639.569702,626.236877 
	C639.548584,622.178162 641.981750,619.583618 643.122864,616.160950 
M667.918274,604.004761 
	C666.632263,600.201599 665.612061,596.254944 662.152954,592.885193 
	C660.153442,597.652771 658.376099,601.890564 656.605896,606.111206 
	C659.625793,607.531921 665.106018,608.077881 667.060730,607.460327 
	C668.749634,606.926758 668.320496,605.795959 667.918274,604.004761 
z"/>
<path fill="#000000" opacity="1.000000" stroke="none" 
	d="
M301.887085,625.518433 
	C300.001892,624.678894 298.376434,624.150940 297.019440,623.228210 
	C295.185455,621.981018 291.615295,621.340027 293.867249,617.893372 
	C295.664703,615.142273 297.512482,612.265625 301.628174,615.761597 
	C305.150543,618.753601 309.689392,619.639954 314.352997,618.643677 
	C316.817474,618.117249 318.705627,616.599854 319.106323,614.091614 
	C319.523102,611.482788 317.463501,610.161255 315.400970,609.413513 
	C311.350647,607.945068 307.182861,606.804565 303.101257,605.417725 
	C298.078339,603.711121 294.942047,600.402893 294.689667,594.870850 
	C294.424347,589.055359 296.411530,584.369080 301.879486,581.768677 
	C309.844391,577.980896 317.415100,579.721008 324.734467,583.772827 
	C327.229645,585.154053 326.583374,586.951965 325.322784,588.781738 
	C324.069336,590.601257 323.312439,593.418884 320.106232,591.397949 
	C316.810425,589.320496 313.355560,587.865295 309.300995,588.280029 
	C306.586792,588.557678 304.226532,589.491577 303.631561,592.274170 
	C303.023926,595.116028 305.458282,596.506531 307.539581,597.359070 
	C310.904694,598.737488 314.484100,599.588196 317.961426,600.698120 
	C325.483124,603.099060 328.589386,607.104919 328.314484,613.999329 
	C328.052704,620.564575 324.180481,624.668213 316.938293,626.620850 
	C311.868317,627.987854 307.077667,627.159363 301.887085,625.518433 
z"/>
<path fill="#000000" opacity="1.000000" stroke="none" 
	d="
M522.045410,625.334290 
	C521.838989,610.346985 521.838989,595.757874 521.838989,580.639709 
	C530.630432,581.045105 539.258301,579.289185 547.703430,581.703918 
	C555.179810,583.841553 558.509094,590.307495 557.418152,599.635254 
	C556.723267,605.575928 550.948608,610.822327 544.412903,611.461182 
	C543.422791,611.557922 542.421631,611.623718 541.451416,611.827087 
	C538.045715,612.541199 533.747131,610.791931 531.326599,613.170959 
	C528.869751,615.585693 530.711182,619.823547 530.313599,623.235107 
	C529.880066,626.954590 527.875854,627.579285 522.045410,625.334290 
M538.370178,588.940430 
	C530.341187,589.070129 530.340881,589.070129 530.348572,596.905273 
	C530.349548,597.898926 530.413635,598.896301 530.348755,599.885437 
	C530.170044,602.607300 531.363586,603.912842 534.130920,603.772034 
	C535.618225,603.696350 537.110901,603.729858 538.600952,603.703491 
	C544.537964,603.598572 548.426147,600.711304 548.599365,596.283997 
	C548.768311,591.967346 545.799927,589.635315 538.370178,588.940430 
z"/>
<path fill="#000000" opacity="1.000000" stroke="none" 
	d="
M438.509308,589.263062 
	C427.440125,585.822388 420.526611,592.554565 418.578033,600.755920 
	C416.647766,608.880493 422.632660,617.398132 430.954651,618.947083 
	C435.645447,619.820251 439.543457,617.818176 442.972290,615.221497 
	C446.554718,612.508362 448.608459,614.651489 450.444824,617.000854 
	C452.749329,619.949097 449.522949,621.120911 447.944122,622.353455 
	C438.240112,629.929443 423.098236,628.778809 415.141815,620.020935 
	C407.357391,611.452332 407.120361,596.138977 414.644745,587.900818 
	C423.289520,578.435974 437.590759,576.905518 447.693939,584.415894 
	C449.523071,585.775635 451.957245,587.127686 449.542633,589.936829 
	C447.534363,592.273193 445.536407,594.746887 442.183014,591.629028 
	C441.223846,590.737183 439.978271,590.153320 438.509308,589.263062 
z"/>
<path fill="#000000" opacity="1.000000" stroke="none" 
	d="
M408.869080,656.599304 
	C413.687134,653.224060 415.765778,654.081360 415.827240,659.344788 
	C415.926331,667.827637 416.296509,676.327820 415.390717,684.791626 
	C415.182587,686.736389 416.401093,689.399902 413.292419,690.201599 
	C410.470154,690.929382 408.556976,689.509583 406.912140,687.369446 
	C402.958282,682.225098 398.954895,677.118164 394.924500,672.033386 
	C393.729187,670.525391 392.860840,668.597107 390.138550,667.996826 
	C388.759827,673.101929 389.843689,678.248169 389.292328,683.243652 
	C389.016815,685.739685 391.409424,690.167908 386.347992,690.136963 
	C381.662262,690.108337 383.227570,685.808777 383.144806,683.207764 
	C382.901428,675.556763 382.970215,667.892700 383.071320,660.235840 
	C383.098083,658.206848 382.477020,655.488037 385.137329,654.644714 
	C387.924530,653.761047 390.284058,654.958801 392.083862,657.328308 
	C396.412079,663.026611 400.798767,668.680664 405.194855,674.326843 
	C405.677765,674.947021 406.375031,675.400269 407.960266,676.807373 
	C409.332886,669.656738 408.261688,663.273132 408.869080,656.599304 
z"/>
<path fill="#000000" opacity="1.000000" stroke="none" 
	d="
M611.042358,608.999084 
	C611.065247,603.348938 610.935547,598.192078 611.149109,593.049377 
	C611.289795,589.662964 610.465088,587.977783 606.668945,588.723389 
	C604.743286,589.101624 602.697083,588.917358 600.706177,588.900085 
	C597.844543,588.875244 596.666382,587.496460 596.663513,584.525146 
	C596.660400,581.304749 598.273071,580.597961 601.006531,580.612183 
	C610.809509,580.663269 620.612976,580.666016 630.416016,580.620789 
	C633.014648,580.608826 634.352173,581.426025 634.395691,584.331177 
	C634.437622,587.134460 633.751526,588.497192 630.671082,588.841858 
	C620.318359,590.000366 620.329041,590.110291 620.325989,600.460205 
	C620.323486,608.893677 620.325500,617.327148 620.325500,625.592468 
	C611.749451,627.503479 611.074341,627.013794 611.043518,619.467773 
	C611.029968,616.144714 611.037598,612.821472 611.042358,608.999084 
z"/>
<path fill="#000000" opacity="1.000000" stroke="none" 
	d="
M488.009216,675.457703 
	C484.459076,675.700623 480.975250,675.296997 481.229980,680.257019 
	C481.377777,683.135559 482.485321,684.627686 485.409302,684.579773 
	C489.398651,684.514343 493.388123,684.447632 497.376648,684.345398 
	C499.482849,684.291443 501.483643,684.333618 501.812439,687.099670 
	C502.143372,689.883423 500.304718,690.605103 498.140106,690.646973 
	C491.659698,690.772400 485.176483,690.803467 478.694641,690.784729 
	C475.941254,690.776794 474.526428,689.519714 474.557648,686.481934 
	C474.655212,677.003296 474.620544,667.521545 474.481293,658.043335 
	C474.442474,655.403503 475.671997,654.375244 478.006805,654.340515 
	C484.656860,654.241394 491.308167,654.180359 497.958710,654.200806 
	C499.706665,654.206177 501.254608,654.718384 501.287140,657.009705 
	C501.321808,659.455444 499.946014,660.165710 497.807098,660.155029 
	C493.648407,660.134216 489.489563,660.137207 485.330780,660.140503 
	C482.852325,660.142456 481.185608,660.887512 481.236176,663.860901 
	C481.281952,666.550964 481.379913,669.007202 484.873230,669.199280 
	C488.356842,669.390869 491.844574,669.530090 495.332367,669.614258 
	C497.212585,669.659607 498.605591,670.112854 498.686523,672.338745 
	C498.770325,674.644897 497.593628,675.763916 495.396973,675.756653 
	C493.073669,675.748901 490.750885,675.569153 488.009216,675.457703 
z"/>
<path fill="#000000" opacity="1.000000" stroke="none" 
	d="
M700.651123,614.969482 
	C700.654785,604.825439 700.728455,595.176636 700.621399,585.529785 
	C700.586487,582.381836 701.238037,580.604065 704.959656,580.551147 
	C708.679993,580.498169 709.424622,582.184265 709.382385,585.391907 
	C709.266113,594.206604 709.341736,603.023987 709.351685,611.840271 
	C709.359253,618.575684 709.366089,618.576660 716.329651,618.599548 
	C720.654541,618.613770 724.979675,618.653687 729.304321,618.625061 
	C731.625122,618.609741 733.161560,619.253601 733.088135,621.986816 
	C733.016907,624.637878 732.407410,626.421753 729.168457,626.431091 
	C722.020630,626.451660 714.873596,626.834656 707.726013,626.841370 
	C700.645996,626.848022 700.645325,626.725037 700.642578,619.457825 
	C700.642090,618.127075 700.647888,616.796265 700.651123,614.969482 
z"/>
<path fill="#000000" opacity="1.000000" stroke="none" 
	d="
M369.344666,613.594482 
	C367.308472,629.175842 351.307220,629.734619 343.161621,624.187927 
	C341.059540,622.756470 338.271179,621.105286 340.856842,617.840088 
	C342.948578,615.198608 344.997101,612.908264 348.344666,616.705933 
	C350.549957,619.207764 353.742859,619.266052 356.670227,617.952698 
	C359.759796,616.566650 360.705231,613.808289 360.686401,610.542053 
	C360.637482,602.047668 360.813812,593.549805 360.631775,585.059143 
	C360.553772,581.419678 362.201782,580.636963 365.426544,580.505310 
	C369.124115,580.354492 369.403900,582.310730 369.378418,585.159119 
	C369.294983,594.485962 369.355072,603.814026 369.344666,613.594482 
z"/>
<path fill="#000000" opacity="1.000000" stroke="none" 
	d="
M610.973450,682.782227 
	C606.050354,680.392639 601.174866,681.415039 596.419617,681.616577 
	C593.867554,681.724670 593.321289,684.427551 592.589172,686.398560 
	C591.213501,690.102051 588.921265,691.295837 585.143433,689.634766 
	C584.913757,686.248352 586.773499,683.566345 588.018555,680.732788 
	C591.301270,673.262817 594.718689,665.852234 598.052002,658.404358 
	C599.068176,656.133728 600.332275,654.560974 603.223206,654.575012 
	C606.053650,654.588806 606.923950,656.458557 607.807068,658.424194 
	C611.832153,667.382812 615.807861,676.363708 619.781189,685.345459 
	C620.378906,686.696655 621.085388,688.054382 620.583130,689.732239 
	C617.354004,691.009888 614.867126,690.633179 613.511475,686.899414 
	C613.011719,685.523193 612.030090,684.321960 610.973450,682.782227 
M607.471680,673.708374 
	C606.375916,670.722168 606.079651,667.256775 602.767090,665.447021 
	C600.203308,667.462341 599.608459,670.285645 598.698303,672.909973 
	C598.153625,674.480530 598.843994,675.676331 600.484253,675.727722 
	C602.851318,675.801941 605.469727,676.772400 607.471680,673.708374 
z"/>
<path fill="#000000" opacity="1.000000" stroke="none" 
	d="
M662.226257,690.283875 
	C659.740173,690.111816 658.969360,688.436646 658.586853,686.905273 
	C656.924438,680.249512 651.693054,681.618958 646.978455,681.309082 
	C642.331299,681.003723 638.797119,681.942017 637.309570,686.911682 
	C636.163330,690.741455 633.519348,691.018616 630.225403,689.644592 
	C629.971863,686.549316 631.809937,684.204163 632.898071,681.665771 
	C636.302490,673.723938 639.913086,665.870789 643.378113,657.954529 
	C644.333679,655.771545 645.675049,654.561279 648.218567,654.418640 
	C650.840393,654.271606 651.671021,655.881348 652.506592,657.763916 
	C656.687866,667.184570 660.870422,676.604675 665.071350,686.016541 
	C666.220825,688.591797 666.522095,690.620361 662.226257,690.283875 
M646.416321,666.349182 
	C645.268921,669.222412 643.452881,671.863281 643.220581,675.330322 
	C646.341370,676.369019 649.279846,676.427490 652.521240,674.971252 
	C652.336182,671.451538 650.749573,668.576111 649.125549,665.749146 
	C648.467651,664.603943 647.525940,664.849548 646.416321,666.349182 
z"/>
<path fill="#000000" opacity="1.000000" stroke="none" 
	d="
M537.828003,687.904419 
	C530.601379,692.501953 523.629639,691.741089 516.742371,688.140808 
	C514.704163,687.075378 512.400757,685.755920 514.263184,682.749084 
	C515.879150,680.140198 517.734497,681.138855 519.781799,682.267090 
	C521.953369,683.463806 524.202026,684.709351 526.574829,685.304443 
	C529.569153,686.055542 532.401855,685.031372 533.547668,681.972839 
	C534.826111,678.560120 532.194153,677.179688 529.581177,676.240295 
	C526.466370,675.120361 523.210815,674.379150 520.128906,673.183411 
	C516.100708,671.620483 514.408325,668.544006 514.559326,664.162659 
	C514.708130,659.844421 516.462097,656.806702 520.506775,655.298950 
	C526.256714,653.155457 531.878357,653.266846 537.241699,656.597229 
	C538.845642,657.593201 539.833862,658.781921 538.730469,660.668335 
	C537.795044,662.267700 536.474854,663.061523 534.557861,662.205322 
	C532.586609,661.324890 530.650635,660.284546 528.589294,659.706238 
	C525.705261,658.897034 523.132263,659.856628 521.906311,662.624146 
	C520.492554,665.815674 523.131165,667.205933 525.380005,668.178162 
	C527.792542,669.221130 530.487000,669.588806 532.986206,670.458679 
	C541.461853,673.409058 543.466919,680.215759 537.828003,687.904419 
z"/>
<path fill="#000000" opacity="1.000000" stroke="none" 
	d="
M434.754333,656.372070 
	C437.998627,663.955017 441.035400,671.229004 444.263275,678.960693 
	C447.433167,676.584656 448.034149,673.794556 449.052216,671.220032 
	C450.705048,667.040161 452.662567,662.971802 454.139862,658.733887 
	C455.567261,654.639099 458.151093,653.915039 462.114960,655.234131 
	C461.764801,659.538391 459.521027,663.105957 457.996399,666.874939 
	C455.188477,673.816345 452.223145,680.699402 449.115234,687.511780 
	C447.469910,691.118286 442.847839,691.764282 441.330139,688.443848 
	C436.438354,677.741516 432.024719,666.820679 427.333466,655.764221 
	C430.293427,654.337524 432.495453,653.728760 434.754333,656.372070 
z"/>
<path fill="#000000" opacity="1.000000" stroke="none" 
	d="
M581.397583,620.473511 
	C581.405701,622.539673 581.405701,624.171570 581.405701,625.707336 
	C573.310852,627.459900 572.659119,626.955811 572.654236,619.281372 
	C572.647278,608.299255 572.693359,597.316895 572.630127,586.335144 
	C572.611572,583.113403 572.552124,580.486206 577.150818,580.531738 
	C581.523193,580.575134 581.378662,583.114014 581.371765,586.095215 
	C581.345581,597.409790 581.378540,608.724548 581.397583,620.473511 
z"/>
<path fill="#000000" opacity="1.000000" stroke="none" 
	d="
M568.880981,681.063843 
	C568.764160,683.338196 568.630676,685.159302 568.530640,686.982117 
	C568.415588,689.079407 567.688904,690.395142 565.232117,690.336426 
	C562.703003,690.276001 562.174927,688.749207 562.159912,686.737488 
	C562.111572,680.256958 562.148254,673.775513 562.068115,667.295532 
	C561.989685,660.955933 561.664368,660.675415 555.240479,660.334900 
	C553.121155,660.222656 550.555298,660.622070 550.454285,657.420654 
	C550.348877,654.082825 553.138916,654.437317 555.120789,654.400940 
	C562.423340,654.266724 569.729919,654.348022 577.035034,654.367432 
	C578.678894,654.371826 580.036194,654.847046 580.115967,656.817627 
	C580.192932,658.722046 579.497314,660.065186 577.380615,660.231140 
	C576.056030,660.335083 574.727234,660.390503 573.405090,660.517761 
	C570.291260,660.817322 568.511169,662.455811 568.551880,665.676270 
	C568.614868,670.655212 568.765625,675.632996 568.880981,681.063843 
z"/>
<path fill="#000000" opacity="1.000000" stroke="none" 
	d="
M361.625549,680.955750 
	C361.538879,673.500549 361.494629,666.539185 361.335754,659.580505 
	C361.280640,657.166870 360.884827,654.808167 364.425690,654.621521 
	C367.718597,654.447815 368.279541,656.411926 368.271301,659.036499 
	C368.243195,667.989929 368.256439,676.943481 368.218842,685.896851 
	C368.209503,688.118958 368.162415,690.302917 364.940918,690.303894 
	C361.746124,690.304871 361.671875,688.185608 361.647095,685.927612 
	C361.630737,684.435364 361.630402,682.942993 361.625549,680.955750 
z"/>
</svg>